<svg width="1602" height="900" viewBox="0 0 1602 900" fill="none" xmlns="http://www.w3.org/2000/svg">
<g id="GradBanner">
<rect id="Background" width="1600" height="900" fill="#F7F4DF"/>
<path id="CONGRATS MARIANA!" d="M459.189 58.42C453.145 55.2133 445.498 53.61 436.249 53.61C428.848 53.61 422.003 55.3983 415.713 58.975C409.547 62.5517 404.552 67.5467 400.728 73.96C396.905 80.25 394.993 87.65 394.993 96.16C394.993 103.93 396.658 110.96 399.988 117.25C403.318 123.417 408.128 128.35 414.418 132.05C420.832 135.627 428.478 137.415 437.358 137.415C441.798 137.415 445.93 136.983 449.753 136.12C453.7 135.257 457.215 134.023 460.298 132.42C460.915 132.05 461.593 131.865 462.334 131.865C463.69 131.865 464.8 132.297 465.664 133.16C466.527 134.023 466.958 135.133 466.958 136.49C466.958 138.463 466.095 139.82 464.369 140.56C460.669 142.533 456.537 144.013 451.974 145C447.41 146.11 442.538 146.665 437.358 146.665C426.505 146.665 417.193 144.445 409.423 140.005C401.777 135.565 395.918 129.522 391.848 121.875C387.778 114.228 385.743 105.657 385.743 96.16C385.743 85.8 388.087 76.735 392.773 68.965C397.46 61.195 403.627 55.1517 411.273 50.835C418.92 46.5183 427.245 44.36 436.249 44.36C447.349 44.36 456.475 46.3333 463.629 50.28C465.232 51.2667 466.034 52.6233 466.034 54.35C466.034 55.46 465.602 56.5083 464.739 57.495C463.875 58.4817 462.765 58.975 461.409 58.975C460.668 58.975 459.929 58.79 459.189 58.42ZM538.814 44.36C547.57 44.36 555.525 46.5183 562.679 50.835C569.955 55.1517 575.69 61.195 579.884 68.965C584.2 76.6117 586.359 85.4917 586.359 95.605C586.359 105.225 584.447 113.92 580.624 121.69C576.924 129.337 571.497 135.442 564.344 140.005C557.314 144.445 548.804 146.665 538.814 146.665C529.44 146.665 521.115 144.445 513.839 140.005C506.562 135.442 500.827 129.337 496.634 121.69C492.564 114.043 490.529 105.533 490.529 96.16C490.529 85.8 492.564 76.735 496.634 68.965C500.704 61.195 506.315 55.1517 513.469 50.835C520.745 46.5183 529.194 44.36 538.814 44.36ZM538.814 53.61C531.044 53.61 524.199 55.46 518.279 59.16C512.482 62.7367 507.919 67.7317 504.589 74.145C501.382 80.435 499.779 87.7733 499.779 96.16C499.779 103.683 501.382 110.59 504.589 116.88C507.919 123.17 512.544 128.165 518.464 131.865C524.384 135.565 531.167 137.415 538.814 137.415C546.954 137.415 553.86 135.565 559.534 131.865C565.33 128.165 569.709 123.17 572.669 116.88C575.629 110.467 577.109 103.375 577.109 95.605C577.109 87.465 575.382 80.25 571.929 73.96C568.599 67.67 564.035 62.7367 558.239 59.16C552.442 55.46 545.967 53.61 538.814 53.61ZM687.489 143.15C683.295 137.477 678.424 131.125 672.874 124.095C667.447 117.065 661.835 109.912 656.039 102.635C650.242 95.235 644.63 88.0817 639.204 81.175C633.9 74.2683 629.152 68.1633 624.959 62.86V140.375C624.959 141.608 624.527 142.718 623.664 143.705C622.8 144.568 621.69 145 620.334 145C619.1 145 617.99 144.568 617.004 143.705C616.14 142.718 615.709 141.608 615.709 140.375V50.65C615.709 49.2933 616.14 48.1833 617.004 47.32C617.99 46.4567 619.039 46.025 620.149 46.025C622.615 46.025 624.28 46.6417 625.144 47.875C628.227 51.945 632.235 57.1867 637.169 63.6C642.102 69.89 647.467 76.7967 653.264 84.32C659.184 91.72 665.104 99.2433 671.024 106.89C677.067 114.413 682.617 121.505 687.674 128.165V50.65C687.674 49.2933 688.105 48.1833 688.969 47.32C689.955 46.4567 691.065 46.025 692.299 46.025C693.655 46.025 694.765 46.4567 695.629 47.32C696.492 48.1833 696.924 49.2933 696.924 50.65V140.375C696.924 141.608 696.492 142.718 695.629 143.705C694.765 144.568 693.717 145 692.484 145C690.017 145 688.352 144.383 687.489 143.15ZM811.95 136.86C807.387 139.697 802.207 142.04 796.41 143.89C790.737 145.74 784.077 146.665 776.43 146.665C765.824 146.665 756.759 144.445 749.235 140.005C741.835 135.442 736.162 129.337 732.215 121.69C728.269 114.043 726.295 105.533 726.295 96.16C726.295 85.8 728.454 76.735 732.77 68.965C737.21 61.195 743.254 55.1517 750.9 50.835C758.547 46.5183 767.242 44.36 776.985 44.36C782.412 44.36 787.469 44.915 792.155 46.025C796.965 47.0117 801.467 48.245 805.66 49.725C807.634 50.465 808.62 51.8833 808.62 53.98C808.62 55.2133 808.189 56.3233 807.325 57.31C806.585 58.1733 805.475 58.605 803.995 58.605C803.625 58.605 803.07 58.4817 802.33 58.235C798.754 56.8783 794.869 55.7683 790.675 54.905C786.482 54.0417 781.919 53.61 776.985 53.61C768.969 53.61 761.815 55.3983 755.525 58.975C749.359 62.5517 744.487 67.5467 740.91 73.96C737.334 80.25 735.545 87.65 735.545 96.16C735.545 103.807 737.149 110.775 740.355 117.065C743.562 123.232 748.187 128.165 754.23 131.865C760.397 135.565 767.797 137.415 776.43 137.415C782.474 137.415 787.777 136.798 792.34 135.565C797.027 134.208 801.282 132.482 805.105 130.385V103.56H779.39C778.157 103.56 777.047 103.128 776.06 102.265C775.197 101.278 774.765 100.168 774.765 98.935C774.765 97.5783 775.197 96.4683 776.06 95.605C777.047 94.7417 778.157 94.31 779.39 94.31H807.695C810.039 94.31 811.704 94.68 812.69 95.42C813.8 96.0367 814.355 97.2083 814.355 98.935V132.235C814.355 134.332 813.554 135.873 811.95 136.86ZM915.211 145C913.854 145 912.682 144.445 911.696 143.335L881.541 108.185H856.751V140.375C856.751 141.608 856.319 142.718 855.456 143.705C854.592 144.568 853.482 145 852.126 145C850.892 145 849.782 144.568 848.796 143.705C847.932 142.718 847.501 141.608 847.501 140.375V50.65C847.501 49.2933 847.932 48.1833 848.796 47.32C849.782 46.4567 850.892 46.025 852.126 46.025H879.321C886.597 46.025 892.826 47.3817 898.006 50.095C903.309 52.8083 907.379 56.5083 910.216 61.195C913.176 65.7583 914.656 71.0617 914.656 77.105C914.656 83.765 912.806 89.8083 909.106 95.235C905.529 100.662 899.917 104.423 892.271 106.52L918.726 137.415C919.466 138.155 919.836 139.142 919.836 140.375C919.836 141.485 919.404 142.533 918.541 143.52C917.677 144.507 916.567 145 915.211 145ZM856.751 55.275V98.935H879.321C887.831 98.935 894.306 96.8383 898.746 92.645C903.186 88.3283 905.406 83.1483 905.406 77.105C905.406 70.5683 902.939 65.3267 898.006 61.38C893.196 57.31 886.967 55.275 879.321 55.275H856.751ZM1028.48 145C1026.39 145 1024.97 144.013 1024.23 142.04C1023 138.71 1021.52 135.01 1019.79 130.94C1018.06 126.87 1016.21 122.615 1014.24 118.175H962.069C960.342 122.615 958.677 126.87 957.074 130.94C955.594 134.887 954.237 138.525 953.004 141.855C952.634 142.842 952.017 143.643 951.154 144.26C950.291 144.753 949.366 145 948.379 145C947.269 145 946.221 144.568 945.234 143.705C944.371 142.718 943.939 141.547 943.939 140.19C943.939 139.82 944.001 139.327 944.124 138.71C944.371 137.97 944.926 136.552 945.789 134.455C947.886 128.905 950.352 122.553 953.189 115.4C956.149 108.247 959.294 100.785 962.624 93.015C965.954 85.245 969.346 77.4133 972.799 69.52C976.252 61.6267 979.582 54.165 982.789 47.135C983.652 45.285 985.132 44.36 987.229 44.36H987.969C990.189 44.36 991.669 45.2233 992.409 46.95C995.739 54.1033 999.254 61.8117 1002.95 70.075C1006.78 78.3383 1010.48 86.54 1014.05 94.68C1017.63 102.697 1020.9 110.22 1023.86 117.25C1026.82 124.157 1029.22 129.892 1031.07 134.455C1032.06 136.675 1032.62 138.155 1032.74 138.895C1032.99 139.635 1033.11 140.128 1033.11 140.375C1033.11 141.608 1032.62 142.718 1031.63 143.705C1030.77 144.568 1029.72 145 1028.48 145ZM1010.35 108.925C1006.78 100.662 1003.02 92.2133 999.069 83.58C995.122 74.9467 991.299 66.745 987.599 58.975C984.146 66.8683 980.507 75.1317 976.684 83.765C972.984 92.275 969.407 100.662 965.954 108.925H1010.35ZM1083.29 145C1082.06 145 1080.95 144.568 1079.96 143.705C1079.1 142.718 1078.67 141.608 1078.67 140.375V55.275H1044.07C1042.84 55.275 1041.73 54.8433 1040.74 53.98C1039.88 52.9933 1039.45 51.8833 1039.45 50.65C1039.45 49.2933 1039.88 48.1833 1040.74 47.32C1041.73 46.4567 1042.84 46.025 1044.07 46.025H1123.25C1124.61 46.025 1125.72 46.4567 1126.58 47.32C1127.45 48.1833 1127.88 49.2933 1127.88 50.65C1127.88 51.8833 1127.45 52.9933 1126.58 53.98C1125.72 54.8433 1124.61 55.275 1123.25 55.275H1087.92V140.375C1087.92 141.608 1087.49 142.718 1086.62 143.705C1085.76 144.568 1084.65 145 1083.29 145ZM1200.79 58.235C1197.83 57.0017 1194.57 56.015 1190.99 55.275C1187.54 54.535 1182.97 54.165 1177.3 54.165C1171.01 54.165 1166.01 55.7683 1162.31 58.975C1158.61 62.0583 1156.76 65.5733 1156.76 69.52C1156.76 73.4667 1158.49 77.0433 1161.94 80.25C1165.4 83.4567 1172.12 86.2317 1182.11 88.575C1190.99 90.5483 1197.83 93.0767 1202.64 96.16C1207.58 99.2433 1211.03 102.758 1213 106.705C1214.98 110.528 1215.96 114.783 1215.96 119.47C1215.96 124.033 1214.79 128.412 1212.45 132.605C1210.23 136.675 1206.53 140.067 1201.35 142.78C1196.29 145.37 1189.51 146.665 1181 146.665C1168.91 146.665 1157.75 143.828 1147.51 138.155C1145.91 137.168 1145.11 135.812 1145.11 134.085C1145.11 132.975 1145.54 131.927 1146.4 130.94C1147.27 129.953 1148.38 129.46 1149.73 129.46C1150.47 129.46 1151.21 129.645 1151.95 130.015C1160.71 134.948 1170.39 137.415 1181 137.415C1189.39 137.415 1195.74 135.688 1200.05 132.235C1204.49 128.658 1206.71 124.403 1206.71 119.47C1206.71 114.29 1204.62 109.973 1200.42 106.52C1196.35 103.067 1189.63 100.168 1180.26 97.825C1171.5 95.605 1164.72 93.0767 1159.91 90.24C1155.22 87.4033 1151.95 84.1967 1150.1 80.62C1148.38 77.0433 1147.51 73.0967 1147.51 68.78C1147.51 64.8333 1148.62 61.0717 1150.84 57.495C1153.19 53.795 1156.58 50.7733 1161.02 48.43C1165.46 46.0867 1170.89 44.915 1177.3 44.915C1184.08 44.915 1189.51 45.47 1193.58 46.58C1197.77 47.5667 1202.15 48.985 1206.71 50.835C1208.69 51.575 1209.67 52.9933 1209.67 55.09C1209.67 56.3233 1209.18 57.4333 1208.19 58.42C1207.33 59.2833 1206.28 59.715 1205.05 59.715C1204.8 59.715 1204.43 59.6533 1203.94 59.53C1203.45 59.2833 1202.4 58.8517 1200.79 58.235ZM530.848 322.37C529.738 322.37 528.751 322 527.888 321.26C527.024 320.52 526.469 319.533 526.223 318.3C525.359 311.27 524.249 303.315 522.893 294.435C521.536 285.555 520.056 276.367 518.453 266.87C516.849 257.373 515.184 248.185 513.458 239.305C509.388 247.568 505.194 256.202 500.878 265.205C496.684 274.085 492.676 282.842 488.853 291.475C485.029 300.108 481.576 308.187 478.493 315.71C477.629 317.807 476.273 318.855 474.423 318.855C472.203 318.855 470.723 317.992 469.983 316.265C466.406 308.618 462.459 300.355 458.143 291.475C453.826 282.472 449.509 273.468 445.193 264.465C440.999 255.462 437.053 247.137 433.353 239.49C432.366 246.027 431.318 252.933 430.208 260.21C429.221 267.487 428.234 274.702 427.248 281.855C426.384 289.008 425.521 295.73 424.658 302.02C423.918 308.31 423.301 313.737 422.808 318.3C422.684 319.41 422.129 320.397 421.143 321.26C420.279 322 419.231 322.37 417.998 322.37C416.764 322.37 415.716 321.938 414.853 321.075C413.989 320.088 413.558 318.917 413.558 317.56C413.558 317.313 413.743 315.525 414.113 312.195C414.606 308.125 415.284 302.575 416.148 295.545C417.011 288.515 417.998 280.868 419.108 272.605C420.218 264.218 421.389 255.893 422.623 247.63C423.856 239.367 425.028 231.905 426.138 225.245C426.384 224.135 426.939 223.21 427.803 222.47C428.789 221.73 429.838 221.36 430.948 221.36C432.428 221.36 433.538 221.853 434.278 222.84C435.511 224.073 436.498 225.553 437.238 227.28C440.691 234.187 444.453 241.957 448.523 250.59C452.716 259.1 457.033 267.857 461.473 276.86C465.913 285.863 470.106 294.497 474.053 302.76C477.629 294.62 481.453 285.987 485.523 276.86C489.716 267.61 493.971 258.422 498.288 249.295C502.728 240.045 507.044 231.473 511.238 223.58C512.224 221.977 513.643 221.175 515.493 221.175C516.603 221.175 517.651 221.545 518.638 222.285C519.624 222.902 520.179 223.765 520.303 224.875C521.783 232.152 523.201 239.922 524.558 248.185C526.038 256.325 527.394 264.157 528.628 271.68C529.861 279.203 530.848 285.802 531.588 291.475C532.451 297.025 533.068 300.848 533.438 302.945C534.424 308.988 534.979 312.873 535.103 314.6C535.349 316.327 535.473 317.375 535.473 317.745C535.473 318.978 535.041 320.088 534.178 321.075C533.314 321.938 532.204 322.37 530.848 322.37ZM645.747 322C643.651 322 642.232 321.013 641.492 319.04C640.259 315.71 638.779 312.01 637.052 307.94C635.326 303.87 633.476 299.615 631.502 295.175H579.332C577.606 299.615 575.941 303.87 574.337 307.94C572.857 311.887 571.501 315.525 570.267 318.855C569.897 319.842 569.281 320.643 568.417 321.26C567.554 321.753 566.629 322 565.642 322C564.532 322 563.484 321.568 562.497 320.705C561.634 319.718 561.202 318.547 561.202 317.19C561.202 316.82 561.264 316.327 561.387 315.71C561.634 314.97 562.189 313.552 563.052 311.455C565.149 305.905 567.616 299.553 570.452 292.4C573.412 285.247 576.557 277.785 579.887 270.015C583.217 262.245 586.609 254.413 590.062 246.52C593.516 238.627 596.846 231.165 600.052 224.135C600.916 222.285 602.396 221.36 604.492 221.36H605.232C607.452 221.36 608.932 222.223 609.672 223.95C613.002 231.103 616.517 238.812 620.217 247.075C624.041 255.338 627.741 263.54 631.317 271.68C634.894 279.697 638.162 287.22 641.122 294.25C644.082 301.157 646.487 306.892 648.337 311.455C649.324 313.675 649.879 315.155 650.002 315.895C650.249 316.635 650.372 317.128 650.372 317.375C650.372 318.608 649.879 319.718 648.892 320.705C648.029 321.568 646.981 322 645.747 322ZM627.617 285.925C624.041 277.662 620.279 269.213 616.332 260.58C612.386 251.947 608.562 243.745 604.862 235.975C601.409 243.868 597.771 252.132 593.947 260.765C590.247 269.275 586.671 277.662 583.217 285.925H627.617ZM745.477 322C744.12 322 742.948 321.445 741.962 320.335L711.807 285.185H687.017V317.375C687.017 318.608 686.585 319.718 685.722 320.705C684.858 321.568 683.748 322 682.392 322C681.158 322 680.048 321.568 679.062 320.705C678.198 319.718 677.767 318.608 677.767 317.375V227.65C677.767 226.293 678.198 225.183 679.062 224.32C680.048 223.457 681.158 223.025 682.392 223.025H709.587C716.863 223.025 723.092 224.382 728.272 227.095C733.575 229.808 737.645 233.508 740.482 238.195C743.442 242.758 744.922 248.062 744.922 254.105C744.922 260.765 743.072 266.808 739.372 272.235C735.795 277.662 730.183 281.423 722.537 283.52L748.992 314.415C749.732 315.155 750.102 316.142 750.102 317.375C750.102 318.485 749.67 319.533 748.807 320.52C747.943 321.507 746.833 322 745.477 322ZM687.017 232.275V275.935H709.587C718.097 275.935 724.572 273.838 729.012 269.645C733.452 265.328 735.672 260.148 735.672 254.105C735.672 247.568 733.205 242.327 728.272 238.38C723.462 234.31 717.233 232.275 709.587 232.275H687.017ZM788.03 317.375C788.03 318.608 787.598 319.718 786.735 320.705C785.871 321.568 784.761 322 783.405 322C782.171 322 781.061 321.568 780.075 320.705C779.211 319.718 778.78 318.608 778.78 317.375V227.65C778.78 226.293 779.211 225.183 780.075 224.32C781.061 223.457 782.171 223.025 783.405 223.025C784.761 223.025 785.871 223.457 786.735 224.32C787.598 225.183 788.03 226.293 788.03 227.65V317.375ZM900.484 322C898.387 322 896.969 321.013 896.229 319.04C894.995 315.71 893.515 312.01 891.789 307.94C890.062 303.87 888.212 299.615 886.239 295.175H834.069C832.342 299.615 830.677 303.87 829.074 307.94C827.594 311.887 826.237 315.525 825.004 318.855C824.634 319.842 824.017 320.643 823.154 321.26C822.29 321.753 821.365 322 820.379 322C819.269 322 818.22 321.568 817.234 320.705C816.37 319.718 815.939 318.547 815.939 317.19C815.939 316.82 816 316.327 816.124 315.71C816.37 314.97 816.925 313.552 817.789 311.455C819.885 305.905 822.352 299.553 825.189 292.4C828.149 285.247 831.294 277.785 834.624 270.015C837.954 262.245 841.345 254.413 844.799 246.52C848.252 238.627 851.582 231.165 854.789 224.135C855.652 222.285 857.132 221.36 859.229 221.36H859.969C862.189 221.36 863.669 222.223 864.409 223.95C867.739 231.103 871.254 238.812 874.954 247.075C878.777 255.338 882.477 263.54 886.054 271.68C889.63 279.697 892.899 287.22 895.859 294.25C898.819 301.157 901.224 306.892 903.074 311.455C904.06 313.675 904.615 315.155 904.739 315.895C904.985 316.635 905.109 317.128 905.109 317.375C905.109 318.608 904.615 319.718 903.629 320.705C902.765 321.568 901.717 322 900.484 322ZM882.354 285.925C878.777 277.662 875.015 269.213 871.069 260.58C867.122 251.947 863.299 243.745 859.599 235.975C856.145 243.868 852.507 252.132 848.684 260.765C844.984 269.275 841.407 277.662 837.954 285.925H882.354ZM1004.28 320.15C1000.09 314.477 995.218 308.125 989.668 301.095C984.241 294.065 978.63 286.912 972.833 279.635C967.036 272.235 961.425 265.082 955.998 258.175C950.695 251.268 945.946 245.163 941.753 239.86V317.375C941.753 318.608 941.321 319.718 940.458 320.705C939.595 321.568 938.485 322 937.128 322C935.895 322 934.785 321.568 933.798 320.705C932.935 319.718 932.503 318.608 932.503 317.375V227.65C932.503 226.293 932.935 225.183 933.798 224.32C934.785 223.457 935.833 223.025 936.943 223.025C939.41 223.025 941.075 223.642 941.938 224.875C945.021 228.945 949.03 234.187 953.963 240.6C958.896 246.89 964.261 253.797 970.058 261.32C975.978 268.72 981.898 276.243 987.818 283.89C993.861 291.413 999.411 298.505 1004.47 305.165V227.65C1004.47 226.293 1004.9 225.183 1005.76 224.32C1006.75 223.457 1007.86 223.025 1009.09 223.025C1010.45 223.025 1011.56 223.457 1012.42 224.32C1013.29 225.183 1013.72 226.293 1013.72 227.65V317.375C1013.72 318.608 1013.29 319.718 1012.42 320.705C1011.56 321.568 1010.51 322 1009.28 322C1006.81 322 1005.15 321.383 1004.28 320.15ZM1125.23 322C1123.13 322 1121.71 321.013 1120.97 319.04C1119.74 315.71 1118.26 312.01 1116.53 307.94C1114.81 303.87 1112.96 299.615 1110.98 295.175H1058.81C1057.09 299.615 1055.42 303.87 1053.82 307.94C1052.34 311.887 1050.98 315.525 1049.75 318.855C1049.38 319.842 1048.76 320.643 1047.9 321.26C1047.04 321.753 1046.11 322 1045.12 322C1044.01 322 1042.97 321.568 1041.98 320.705C1041.12 319.718 1040.68 318.547 1040.68 317.19C1040.68 316.82 1040.75 316.327 1040.87 315.71C1041.12 314.97 1041.67 313.552 1042.53 311.455C1044.63 305.905 1047.1 299.553 1049.93 292.4C1052.89 285.247 1056.04 277.785 1059.37 270.015C1062.7 262.245 1066.09 254.413 1069.54 246.52C1073 238.627 1076.33 231.165 1079.53 224.135C1080.4 222.285 1081.88 221.36 1083.97 221.36H1084.71C1086.93 221.36 1088.41 222.223 1089.15 223.95C1092.48 231.103 1096 238.812 1099.7 247.075C1103.52 255.338 1107.22 263.54 1110.8 271.68C1114.38 279.697 1117.64 287.22 1120.6 294.25C1123.56 301.157 1125.97 306.892 1127.82 311.455C1128.81 313.675 1129.36 315.155 1129.48 315.895C1129.73 316.635 1129.85 317.128 1129.85 317.375C1129.85 318.608 1129.36 319.718 1128.37 320.705C1127.51 321.568 1126.46 322 1125.23 322ZM1107.1 285.925C1103.52 277.662 1099.76 269.213 1095.81 260.58C1091.87 251.947 1088.04 243.745 1084.34 235.975C1080.89 243.868 1077.25 252.132 1073.43 260.765C1069.73 269.275 1066.15 277.662 1062.7 285.925H1107.1ZM1171.36 220.99C1171.36 219.757 1171.85 218.708 1172.84 217.845C1173.83 216.982 1174.94 216.55 1176.17 216.55C1177.4 216.55 1178.45 217.043 1179.31 218.03C1180.18 218.893 1180.61 220.003 1180.61 221.36L1179.31 272.79C1179.31 274.023 1178.82 275.072 1177.83 275.935C1176.97 276.798 1175.86 277.23 1174.5 277.23C1173.27 277.23 1172.22 276.737 1171.36 275.75C1170.5 274.763 1170.06 273.653 1170.06 272.42L1171.36 220.99ZM1174.69 302.945C1177.16 302.945 1179.19 303.932 1180.79 305.905C1182.4 307.755 1183.2 310.098 1183.2 312.935C1183.2 316.388 1182.4 318.917 1180.79 320.52C1179.31 322.123 1177.34 322.925 1174.87 322.925C1172.9 322.925 1170.99 322.123 1169.14 320.52C1167.29 318.917 1166.36 316.388 1166.36 312.935C1166.36 309.975 1167.1 307.57 1168.58 305.72C1170.06 303.87 1172.1 302.945 1174.69 302.945Z" fill="black"/>
<path id="2022 GRAD" d="M428.271 833C427.191 833 426.219 832.622 425.355 831.866C424.599 831.002 424.221 830.03 424.221 828.95C424.221 828.086 424.599 827.168 425.355 826.196L454.029 798.818C459.429 793.634 463.695 789.314 466.827 785.858C470.067 782.402 472.389 779.27 473.793 776.462C475.197 773.546 475.899 770.522 475.899 767.39C475.899 763.61 474.333 760.262 471.201 757.346C468.069 754.43 463.587 752.972 457.755 752.972C449.979 752.972 442.527 755.132 435.399 759.452C435.075 759.56 434.751 759.722 434.427 759.938C434.103 760.046 433.725 760.1 433.293 760.1C432.321 760.1 431.403 759.776 430.539 759.128C429.675 758.372 429.243 757.346 429.243 756.05C429.243 754.538 429.891 753.404 431.187 752.648C439.503 747.464 448.359 744.872 457.755 744.872C463.803 744.872 468.771 746.006 472.659 748.274C476.547 750.434 479.409 753.242 481.245 756.698C483.081 760.046 483.999 763.61 483.999 767.39C483.999 770.954 483.297 774.41 481.893 777.758C480.489 781.106 478.005 784.886 474.441 789.098C470.985 793.31 466.017 798.494 459.537 804.65L438.315 824.9H485.295C486.483 824.9 487.455 825.332 488.211 826.196C488.967 826.952 489.345 827.87 489.345 828.95C489.345 830.03 488.967 831.002 488.211 831.866C487.455 832.622 486.483 833 485.295 833H428.271ZM544.233 745.034C550.713 745.034 556.653 746.924 562.053 750.704C567.561 754.376 571.935 759.56 575.175 766.256C578.523 772.844 580.197 780.566 580.197 789.422C580.197 797.738 578.739 805.298 575.823 812.102C573.015 818.906 568.911 824.306 563.511 828.302C558.219 832.298 551.793 834.296 544.233 834.296C537.321 834.296 531.111 832.298 525.603 828.302C520.095 824.306 515.721 818.96 512.481 812.264C509.349 805.46 507.783 797.954 507.783 789.746C507.783 780.782 509.349 772.952 512.481 766.256C515.613 759.56 519.933 754.376 525.441 750.704C530.949 746.924 537.213 745.034 544.233 745.034ZM544.233 753.134C538.509 753.134 533.487 754.754 529.167 757.994C524.955 761.126 521.661 765.446 519.285 770.954C517.017 776.462 515.883 782.726 515.883 789.746C515.883 796.118 517.071 802.112 519.447 807.728C521.823 813.236 525.117 817.718 529.329 821.174C533.649 824.522 538.617 826.196 544.233 826.196C550.389 826.196 555.519 824.468 559.623 821.012C563.727 817.556 566.805 813.074 568.857 807.566C571.017 801.95 572.097 795.902 572.097 789.422C572.097 782.51 570.855 776.354 568.371 770.954C565.995 765.446 562.701 761.126 558.489 757.994C554.277 754.754 549.525 753.134 544.233 753.134ZM602.294 833C601.214 833 600.242 832.622 599.378 831.866C598.622 831.002 598.244 830.03 598.244 828.95C598.244 828.086 598.622 827.168 599.378 826.196L628.052 798.818C633.452 793.634 637.718 789.314 640.85 785.858C644.09 782.402 646.412 779.27 647.816 776.462C649.22 773.546 649.922 770.522 649.922 767.39C649.922 763.61 648.356 760.262 645.224 757.346C642.092 754.43 637.61 752.972 631.778 752.972C624.002 752.972 616.55 755.132 609.422 759.452C609.098 759.56 608.774 759.722 608.45 759.938C608.126 760.046 607.748 760.1 607.316 760.1C606.344 760.1 605.426 759.776 604.562 759.128C603.698 758.372 603.266 757.346 603.266 756.05C603.266 754.538 603.914 753.404 605.21 752.648C613.526 747.464 622.382 744.872 631.778 744.872C637.826 744.872 642.794 746.006 646.682 748.274C650.57 750.434 653.432 753.242 655.268 756.698C657.104 760.046 658.022 763.61 658.022 767.39C658.022 770.954 657.32 774.41 655.916 777.758C654.512 781.106 652.028 784.886 648.464 789.098C645.008 793.31 640.04 798.494 633.56 804.65L612.338 824.9H659.318C660.506 824.9 661.478 825.332 662.234 826.196C662.99 826.952 663.368 827.87 663.368 828.95C663.368 830.03 662.99 831.002 662.234 831.866C661.478 832.622 660.506 833 659.318 833H602.294ZM684.56 833C683.48 833 682.508 832.622 681.644 831.866C680.888 831.002 680.51 830.03 680.51 828.95C680.51 828.086 680.888 827.168 681.644 826.196L710.318 798.818C715.718 793.634 719.984 789.314 723.116 785.858C726.356 782.402 728.678 779.27 730.082 776.462C731.486 773.546 732.188 770.522 732.188 767.39C732.188 763.61 730.622 760.262 727.49 757.346C724.358 754.43 719.876 752.972 714.044 752.972C706.268 752.972 698.816 755.132 691.688 759.452C691.364 759.56 691.04 759.722 690.716 759.938C690.392 760.046 690.014 760.1 689.582 760.1C688.61 760.1 687.692 759.776 686.828 759.128C685.964 758.372 685.532 757.346 685.532 756.05C685.532 754.538 686.18 753.404 687.476 752.648C695.792 747.464 704.648 744.872 714.044 744.872C720.092 744.872 725.06 746.006 728.948 748.274C732.836 750.434 735.698 753.242 737.534 756.698C739.37 760.046 740.288 763.61 740.288 767.39C740.288 770.954 739.586 774.41 738.182 777.758C736.778 781.106 734.294 784.886 730.73 789.098C727.274 793.31 722.306 798.494 715.826 804.65L694.604 824.9H741.584C742.772 824.9 743.744 825.332 744.5 826.196C745.256 826.952 745.634 827.87 745.634 828.95C745.634 830.03 745.256 831.002 744.5 831.866C743.744 832.622 742.772 833 741.584 833H684.56ZM886.072 825.872C882.076 828.356 877.54 830.408 872.464 832.028C867.496 833.648 861.664 834.458 854.968 834.458C845.68 834.458 837.742 832.514 831.154 828.626C824.674 824.63 819.706 819.284 816.25 812.588C812.794 805.892 811.066 798.44 811.066 790.232C811.066 781.16 812.956 773.222 816.736 766.418C820.624 759.614 825.916 754.322 832.612 750.542C839.308 746.762 846.922 744.872 855.454 744.872C860.206 744.872 864.634 745.358 868.738 746.33C872.95 747.194 876.892 748.274 880.564 749.57C882.292 750.218 883.156 751.46 883.156 753.296C883.156 754.376 882.778 755.348 882.022 756.212C881.374 756.968 880.402 757.346 879.106 757.346C878.782 757.346 878.296 757.238 877.648 757.022C874.516 755.834 871.114 754.862 867.442 754.106C863.77 753.35 859.774 752.972 855.454 752.972C848.434 752.972 842.17 754.538 836.662 757.67C831.262 760.802 826.996 765.176 823.864 770.792C820.732 776.3 819.166 782.78 819.166 790.232C819.166 796.928 820.57 803.03 823.378 808.538C826.186 813.938 830.236 818.258 835.528 821.498C840.928 824.738 847.408 826.358 854.968 826.358C860.26 826.358 864.904 825.818 868.9 824.738C873.004 823.55 876.73 822.038 880.078 820.202V796.712H857.56C856.48 796.712 855.508 796.334 854.644 795.578C853.888 794.714 853.51 793.742 853.51 792.662C853.51 791.474 853.888 790.502 854.644 789.746C855.508 788.99 856.48 788.612 857.56 788.612H882.346C884.398 788.612 885.856 788.936 886.72 789.584C887.692 790.124 888.178 791.15 888.178 792.662V821.822C888.178 823.658 887.476 825.008 886.072 825.872ZM976.494 833C975.306 833 974.28 832.514 973.416 831.542L947.01 800.762H925.302V828.95C925.302 830.03 924.924 831.002 924.168 831.866C923.412 832.622 922.44 833 921.252 833C920.172 833 919.2 832.622 918.336 831.866C917.58 831.002 917.202 830.03 917.202 828.95V750.38C917.202 749.192 917.58 748.22 918.336 747.464C919.2 746.708 920.172 746.33 921.252 746.33H945.066C951.438 746.33 956.892 747.518 961.428 749.894C966.072 752.27 969.636 755.51 972.12 759.614C974.712 763.61 976.008 768.254 976.008 773.546C976.008 779.378 974.388 784.67 971.148 789.422C968.016 794.174 963.102 797.468 956.406 799.304L979.572 826.358C980.22 827.006 980.544 827.87 980.544 828.95C980.544 829.922 980.166 830.84 979.41 831.704C978.654 832.568 977.682 833 976.494 833ZM925.302 754.43V792.662H945.066C952.518 792.662 958.188 790.826 962.076 787.154C965.964 783.374 967.908 778.838 967.908 773.546C967.908 767.822 965.748 763.232 961.428 759.776C957.216 756.212 951.762 754.43 945.066 754.43H925.302ZM1075.68 833C1073.85 833 1072.61 832.136 1071.96 830.408C1070.88 827.492 1069.58 824.252 1068.07 820.688C1066.56 817.124 1064.94 813.398 1063.21 809.51H1017.53C1016.02 813.398 1014.56 817.124 1013.15 820.688C1011.86 824.144 1010.67 827.33 1009.59 830.246C1009.27 831.11 1008.73 831.812 1007.97 832.352C1007.21 832.784 1006.4 833 1005.54 833C1004.57 833 1003.65 832.622 1002.79 831.866C1002.03 831.002 1001.65 829.976 1001.65 828.788C1001.65 828.464 1001.71 828.032 1001.81 827.492C1002.03 826.844 1002.52 825.602 1003.27 823.766C1005.11 818.906 1007.27 813.344 1009.75 807.08C1012.34 800.816 1015.1 794.282 1018.01 787.478C1020.93 780.674 1023.9 773.816 1026.92 766.904C1029.95 759.992 1032.86 753.458 1035.67 747.302C1036.43 745.682 1037.72 744.872 1039.56 744.872H1040.21C1042.15 744.872 1043.45 745.628 1044.1 747.14C1047.01 753.404 1050.09 760.154 1053.33 767.39C1056.68 774.626 1059.92 781.808 1063.05 788.936C1066.18 795.956 1069.04 802.544 1071.64 808.7C1074.23 814.748 1076.33 819.77 1077.95 823.766C1078.82 825.71 1079.3 827.006 1079.41 827.654C1079.63 828.302 1079.74 828.734 1079.74 828.95C1079.74 830.03 1079.3 831.002 1078.44 831.866C1077.68 832.622 1076.77 833 1075.68 833ZM1059.81 801.41C1056.68 794.174 1053.38 786.776 1049.93 779.216C1046.47 771.656 1043.12 764.474 1039.88 757.67C1036.86 764.582 1033.67 771.818 1030.33 779.378C1027.09 786.83 1023.95 794.174 1020.93 801.41H1059.81ZM1107.77 833C1106.69 833 1105.72 832.622 1104.86 831.866C1104.1 831.002 1103.72 830.03 1103.72 828.95V750.38C1103.72 749.192 1104.1 748.22 1104.86 747.464C1105.72 746.708 1106.69 746.33 1107.77 746.33H1136.29C1143.41 746.33 1150.06 748.166 1156.21 751.838C1162.48 755.51 1167.5 760.586 1171.28 767.066C1175.17 773.546 1177.11 781.052 1177.11 789.584C1177.11 797.684 1175.38 805.028 1171.93 811.616C1168.58 818.096 1163.83 823.28 1157.67 827.168C1151.62 831.056 1144.49 833 1136.29 833H1107.77ZM1111.82 754.43V824.9H1136.29C1142.98 824.9 1148.76 823.334 1153.62 820.202C1158.59 816.962 1162.37 812.696 1164.96 807.404C1167.66 802.004 1169.01 796.064 1169.01 789.584C1169.01 782.78 1167.5 776.732 1164.47 771.44C1161.45 766.148 1157.45 761.99 1152.49 758.966C1147.52 755.942 1142.12 754.43 1136.29 754.43H1111.82Z" fill="black"/>
<g id="Cap">
<path id="Ellipse 1" d="M800 640C847.496 640 886 624.451 886 605.27V504H714V605.27C714 624.451 752.504 640 800 640Z" fill="#2E2E2E"/>
<path id="Rectangle 2" d="M667.799 522.297C664.461 519.903 664.461 514.939 667.799 512.546L798.925 418.508C801.015 417.009 803.828 417.009 805.918 418.508L937.044 512.546C940.382 514.939 940.382 519.903 937.044 522.297L805.918 616.335C803.828 617.834 801.015 617.834 798.925 616.335L667.799 522.297Z" fill="#3A3A3A"/>
<path id="Vector 1" d="M802 517L896 552V631.5" stroke="#D3A42A" stroke-width="8" stroke-linecap="round" stroke-linejoin="round"/>
<circle id="Ellipse 2" cx="896" cy="633" r="9" fill="#CB9D28"/>
</g>
<g id="LeftBalloons">
<g id="Balloon">
<path id="Vector 2" d="M216.189 207.289C216.189 207.289 224.779 214.533 221.274 236.257C217.769 257.982 169.329 272.492 162.579 295.788C155.829 319.083 162.709 338.709 162.709 338.709" stroke="#B6B6B6" stroke-width="2" stroke-linecap="round" stroke-linejoin="round"/>
<path id="Ellipse 3" d="M296.505 100.847C291.324 138.361 252.075 208.207 216.241 203.259C180.406 198.31 161.556 120.441 166.736 82.9265C171.917 45.4117 205.166 19.0116 241.001 23.9601C276.835 28.9086 301.685 63.3319 296.505 100.847Z" fill="#F83C3C"/>
<ellipse id="Ellipse 4" cx="216.189" cy="207.289" rx="9" ry="4" transform="rotate(7.86243 216.189 207.289)" fill="#F83C3C"/>
</g>
<g id="Balloon_2">
<path id="Vector 2_2" d="M216.189 1092.29C216.189 1092.29 224.779 1099.53 221.274 1121.26C217.769 1142.98 169.329 1157.49 162.579 1180.79C155.829 1204.08 162.709 1223.71 162.709 1223.71" stroke="#B6B6B6" stroke-width="2" stroke-linecap="round" stroke-linejoin="round"/>
<path id="Ellipse 3_2" d="M296.505 985.847C291.324 1023.36 252.075 1093.21 216.241 1088.26C180.406 1083.31 161.556 1005.44 166.736 967.927C171.917 930.412 205.166 904.012 241.001 908.96C276.835 913.909 301.685 948.332 296.505 985.847Z" fill="#F83C3C"/>
<ellipse id="Ellipse 4_2" cx="216.189" cy="1092.29" rx="9" ry="4" transform="rotate(7.86243 216.189 1092.29)" fill="#F83C3C"/>
</g>
<g id="Balloon_3">
<path id="Vector 2_3" d="M115.589 477.25C115.589 477.25 126.095 481.234 129.995 502.891C133.895 524.548 93.0108 554.305 94.3703 578.521C95.7298 602.736 108.73 618.969 108.73 618.969" stroke="#B6B6B6" stroke-width="2" stroke-linecap="round" stroke-linejoin="round"/>
<path id="Ellipse 3_3" d="M156.049 350.192C163.606 387.301 149.748 466.212 114.301 473.43C78.8535 480.649 35.2401 413.442 27.6831 376.333C20.1262 339.224 42.7356 303.289 78.1827 296.07C113.63 288.852 148.492 313.083 156.049 350.192Z" fill="#3C65F8"/>
<ellipse id="Ellipse 4_3" cx="115.589" cy="477.25" rx="9" ry="4" transform="rotate(-11.5105 115.589 477.25)" fill="#3C65F8"/>
</g>
<g id="Balloon_4">
<path id="Vector 2_4" d="M115.589 1362.25C115.589 1362.25 126.095 1366.23 129.995 1387.89C133.895 1409.55 93.0108 1439.3 94.3703 1463.52C95.7298 1487.74 108.73 1503.97 108.73 1503.97" stroke="#B6B6B6" stroke-width="2" stroke-linecap="round" stroke-linejoin="round"/>
<path id="Ellipse 3_4" d="M156.049 1235.19C163.606 1272.3 149.748 1351.21 114.301 1358.43C78.8535 1365.65 35.2401 1298.44 27.6831 1261.33C20.1262 1224.22 42.7356 1188.29 78.1827 1181.07C113.63 1173.85 148.492 1198.08 156.049 1235.19Z" fill="#3C65F8"/>
<ellipse id="Ellipse 4_4" cx="115.589" cy="1362.25" rx="9" ry="4" transform="rotate(-11.5105 115.589 1362.25)" fill="#3C65F8"/>
</g>
<g id="Balloon_5">
<path id="Vector 2_5" d="M278.117 451.082C278.117 451.082 286.032 459.057 280.618 480.386C275.203 501.715 225.669 511.88 216.883 534.487C208.097 557.093 213.213 577.251 213.213 577.251" stroke="#B6B6B6" stroke-width="2" stroke-linecap="round" stroke-linejoin="round"/>
<path id="Ellipse 3_5" d="M367.54 352.167C359.059 389.076 313.781 455.173 278.525 447.071C243.269 438.97 231.386 359.738 239.867 322.829C248.349 285.921 283.804 262.567 319.06 270.669C354.316 278.77 376.021 315.258 367.54 352.167Z" fill="#F8DA3C"/>
<ellipse id="Ellipse 4_5" cx="278.117" cy="451.082" rx="9" ry="4" transform="rotate(12.9412 278.117 451.082)" fill="#F8DA3C"/>
</g>
<g id="Balloon_6">
<path id="Vector 2_6" d="M278.117 1336.08C278.117 1336.08 286.032 1344.06 280.618 1365.39C275.203 1386.72 225.669 1396.88 216.883 1419.49C208.097 1442.09 213.213 1462.25 213.213 1462.25" stroke="#B6B6B6" stroke-width="2" stroke-linecap="round" stroke-linejoin="round"/>
<path id="Ellipse 3_6" d="M367.54 1237.17C359.059 1274.08 313.781 1340.17 278.525 1332.07C243.269 1323.97 231.386 1244.74 239.867 1207.83C248.349 1170.92 283.804 1147.57 319.06 1155.67C354.316 1163.77 376.021 1200.26 367.54 1237.17Z" fill="#F8DA3C"/>
<ellipse id="Ellipse 4_6" cx="278.117" cy="1336.08" rx="9" ry="4" transform="rotate(12.9412 278.117 1336.08)" fill="#F8DA3C"/>
</g>
<g id="Balloon_7">
<path id="Vector 2_7" d="M267.391 735.46C267.391 735.46 278.508 737.089 286.978 757.4C295.448 777.71 261.927 815.569 268.467 838.925C275.006 862.28 291.196 875.334 291.196 875.334" stroke="#B6B6B6" stroke-width="2" stroke-linecap="round" stroke-linejoin="round"/>
<path id="Ellipse 3_7" d="M279.555 602.672C294.922 637.285 298.373 717.329 265.311 732.007C232.248 746.686 175.192 690.442 159.825 655.829C144.457 621.216 158.803 581.257 191.865 566.578C224.928 551.9 264.188 568.059 279.555 602.672Z" fill="#37E65D"/>
<ellipse id="Ellipse 4_7" cx="267.391" cy="735.46" rx="9" ry="4" transform="rotate(-23.9398 267.391 735.46)" fill="#37E65D"/>
</g>
<g id="Balloon_8">
<path id="Vector 2_8" d="M267.391 1620.46C267.391 1620.46 278.508 1622.09 286.978 1642.4C295.448 1662.71 261.927 1700.57 268.467 1723.92C275.006 1747.28 291.196 1760.33 291.196 1760.33" stroke="#B6B6B6" stroke-width="2" stroke-linecap="round" stroke-linejoin="round"/>
<path id="Ellipse 3_8" d="M279.555 1487.67C294.922 1522.28 298.373 1602.33 265.311 1617.01C232.248 1631.69 175.192 1575.44 159.825 1540.83C144.457 1506.22 158.803 1466.26 191.865 1451.58C224.928 1436.9 264.188 1453.06 279.555 1487.67Z" fill="#37E65D"/>
<ellipse id="Ellipse 4_8" cx="267.391" cy="1620.46" rx="9" ry="4" transform="rotate(-23.9398 267.391 1620.46)" fill="#37E65D"/>
</g>
</g>
<g id="RightBalloons">
<g id="Balloon_9">
<path id="Vector 2_9" d="M1375.96 622.675C1375.96 622.675 1386.59 626.299 1391.23 647.811C1395.86 669.323 1356.01 700.454 1358.2 724.61C1360.38 748.765 1373.93 764.545 1373.93 764.545" stroke="#B6B6B6" stroke-width="2" stroke-linecap="round" stroke-linejoin="round"/>
<path id="Ellipse 3_9" d="M1412.07 494.314C1420.88 531.145 1409.72 610.481 1374.54 618.902C1339.36 627.322 1293.48 561.639 1284.67 524.808C1275.85 487.978 1297.23 451.295 1332.41 442.874C1367.59 434.453 1403.25 457.484 1412.07 494.314Z" fill="#F83C3C"/>
<ellipse id="Ellipse 4_9" cx="1375.96" cy="622.675" rx="9" ry="4" transform="rotate(-13.4608 1375.96 622.675)" fill="#F83C3C"/>
</g>
<g id="Balloon_10">
<path id="Vector 2_10" d="M1375.96 1529.68C1375.96 1529.68 1386.59 1533.3 1391.23 1554.81C1395.86 1576.32 1356.01 1607.45 1358.2 1631.61C1360.38 1655.77 1373.93 1671.55 1373.93 1671.55" stroke="#B6B6B6" stroke-width="2" stroke-linecap="round" stroke-linejoin="round"/>
<path id="Ellipse 3_10" d="M1412.07 1401.31C1420.88 1438.14 1409.72 1517.48 1374.54 1525.9C1339.36 1534.32 1293.48 1468.64 1284.67 1431.81C1275.85 1394.98 1297.23 1358.29 1332.41 1349.87C1367.59 1341.45 1403.25 1364.48 1412.07 1401.31Z" fill="#F83C3C"/>
<ellipse id="Ellipse 4_10" cx="1375.96" cy="1529.68" rx="9" ry="4" transform="rotate(-13.4608 1375.96 1529.68)" fill="#F83C3C"/>
</g>
<g id="Balloon_11">
<path id="Vector 2_11" d="M1496.73 388.69C1496.73 388.69 1505.4 395.843 1502.12 417.603C1498.84 439.364 1450.56 454.381 1444.05 477.746C1437.55 501.111 1444.63 520.664 1444.63 520.664" stroke="#B6B6B6" stroke-width="2" stroke-linecap="round" stroke-linejoin="round"/>
<path id="Ellipse 3_11" d="M1575.92 281.41C1571.14 318.977 1532.62 389.231 1496.74 384.659C1460.86 380.087 1441.19 302.42 1445.98 264.853C1450.76 227.286 1483.73 200.538 1519.62 205.111C1555.5 209.683 1580.71 243.843 1575.92 281.41Z" fill="#3C65F8"/>
<ellipse id="Ellipse 4_11" cx="1496.73" cy="388.69" rx="9" ry="4" transform="rotate(7.26106 1496.73 388.69)" fill="#3C65F8"/>
</g>
<g id="Balloon_12">
<path id="Vector 2_12" d="M1496.73 1295.69C1496.73 1295.69 1505.4 1302.84 1502.12 1324.6C1498.84 1346.36 1450.56 1361.38 1444.05 1384.75C1437.55 1408.11 1444.63 1427.66 1444.63 1427.66" stroke="#B6B6B6" stroke-width="2" stroke-linecap="round" stroke-linejoin="round"/>
<path id="Ellipse 3_12" d="M1575.92 1188.41C1571.14 1225.98 1532.62 1296.23 1496.74 1291.66C1460.86 1287.09 1441.19 1209.42 1445.98 1171.85C1450.76 1134.29 1483.73 1107.54 1519.62 1112.11C1555.5 1116.68 1580.71 1150.84 1575.92 1188.41Z" fill="#3C65F8"/>
<ellipse id="Ellipse 4_12" cx="1496.73" cy="1295.69" rx="9" ry="4" transform="rotate(7.26106 1496.73 1295.69)" fill="#3C65F8"/>
</g>
<g id="Balloon_13">
<path id="Vector 2_13" d="M1484.12 745.082C1484.12 745.082 1492.03 753.057 1486.62 774.386C1481.2 795.715 1431.67 805.88 1422.88 828.487C1414.1 851.093 1419.21 871.251 1419.21 871.251" stroke="#B6B6B6" stroke-width="2" stroke-linecap="round" stroke-linejoin="round"/>
<path id="Ellipse 3_13" d="M1573.54 646.167C1565.06 683.076 1519.78 749.173 1484.53 741.071C1449.27 732.97 1437.39 653.738 1445.87 616.829C1454.35 579.921 1489.8 556.567 1525.06 564.669C1560.32 572.77 1582.02 609.258 1573.54 646.167Z" fill="#F8DA3C"/>
<ellipse id="Ellipse 4_13" cx="1484.12" cy="745.082" rx="9" ry="4" transform="rotate(12.9412 1484.12 745.082)" fill="#F8DA3C"/>
</g>
<g id="Balloon_14">
<path id="Vector 2_14" d="M1484.12 1652.08C1484.12 1652.08 1492.03 1660.06 1486.62 1681.39C1481.2 1702.72 1431.67 1712.88 1422.88 1735.49C1414.1 1758.09 1419.21 1778.25 1419.21 1778.25" stroke="#B6B6B6" stroke-width="2" stroke-linecap="round" stroke-linejoin="round"/>
<path id="Ellipse 3_14" d="M1573.54 1553.17C1565.06 1590.08 1519.78 1656.17 1484.53 1648.07C1449.27 1639.97 1437.39 1560.74 1445.87 1523.83C1454.35 1486.92 1489.8 1463.57 1525.06 1471.67C1560.32 1479.77 1582.02 1516.26 1573.54 1553.17Z" fill="#F8DA3C"/>
<ellipse id="Ellipse 4_14" cx="1484.12" cy="1652.08" rx="9" ry="4" transform="rotate(12.9412 1484.12 1652.08)" fill="#F8DA3C"/>
</g>
<g id="Balloon_15">
<path id="Vector 2_15" d="M1381.39 202.46C1381.39 202.46 1392.51 204.089 1400.98 224.4C1409.45 244.71 1375.93 282.569 1382.47 305.925C1389.01 329.28 1405.2 342.334 1405.2 342.334" stroke="#B6B6B6" stroke-width="2" stroke-linecap="round" stroke-linejoin="round"/>
<path id="Ellipse 3_15" d="M1393.55 69.6721C1408.92 104.285 1412.37 184.329 1379.31 199.007C1346.25 213.686 1289.19 157.442 1273.82 122.829C1258.46 88.216 1272.8 48.2572 1305.87 33.5784C1338.93 18.8995 1378.19 35.0593 1393.55 69.6721Z" fill="#37E65D"/>
<ellipse id="Ellipse 4_15" cx="1381.39" cy="202.46" rx="9" ry="4" transform="rotate(-23.9398 1381.39 202.46)" fill="#37E65D"/>
</g>
<g id="Balloon_16">
<path id="Vector 2_16" d="M1381.39 1109.46C1381.39 1109.46 1392.51 1111.09 1400.98 1131.4C1409.45 1151.71 1375.93 1189.57 1382.47 1212.92C1389.01 1236.28 1405.2 1249.33 1405.2 1249.33" stroke="#B6B6B6" stroke-width="2" stroke-linecap="round" stroke-linejoin="round"/>
<path id="Ellipse 3_16" d="M1393.55 976.672C1408.92 1011.28 1412.37 1091.33 1379.31 1106.01C1346.25 1120.69 1289.19 1064.44 1273.82 1029.83C1258.46 995.216 1272.8 955.257 1305.87 940.578C1338.93 925.9 1378.19 942.059 1393.55 976.672Z" fill="#37E65D"/>
<ellipse id="Ellipse 4_16" cx="1381.39" cy="1109.46" rx="9" ry="4" transform="rotate(-23.9398 1381.39 1109.46)" fill="#37E65D"/>
</g>
</g>
</g>
</svg>
